<svg xmlns="http://www.w3.org/2000/svg" width="15.2" height="14.6" viewBox="0 0 15.2 14.6"><path fill="#C7C8CA" d="M12.2 1.4l1.5 1.4s-1 1.5-.5 2.3c.4.8 1.9 1.1 1.9 1.1v2s-1.5.2-1.9 1.2c-.4 1 .5 2.3.5 2.3l-1.4 1.4s-1.2-.9-2.3-.5c-1.1.4-1.3 1.9-1.3 1.9H6.6s-.1-1.4-1.1-1.9-2.6.5-2.6.5l-1.4-1.4s1-1.3.5-2.3c-.4-.9-2-1.1-2-1.1v-2s2.1-.5 2.1-1.4-.6-2.1-.6-2.1L3 1.4s1.3.8 2.4.5C6.2 1.6 6.6 0 6.6 0h2.1S9 1.6 10 2c1 .3 2.2-.6 2.2-.6m-4.6 9.8c2.2 0 4-1.7 4-3.9 0-2.1-1.8-3.9-4-3.9s-4 1.7-4 3.9c-.1 2.1 1.7 3.9 4 3.9"/></svg>