<?xml version="1.0" encoding="utf-8"?>
<svg xmlns="http://www.w3.org/2000/svg" x="0px" y="0px"
	 width="18.1px" height="4px" viewBox="0 0 18.1 4">

	<path fill="#C7C8CA" d="M0,2c0,1.1,0.9,2,2,2c1.1,0,2-0.9,2-2S3.1,0,2,0C0.9,0,0,0.9,0,2">
		<animate
			attributeName="opacity"
			values="0; 1; 1; 1;"
			begin="0s"
			dur="2s"
			repeatCount="indefinite"
		/>
	</path>
	<path fill="#C7C8CA" d="M7,2c0,1.1,0.9,2,2,2c1.1,0,2-0.9,2-2s-0.9-2-2-2C7.9,0,7,0.9,7,2" opacity="0">
		<animate
			attributeName="opacity"
			values="0; 0; 1; 1;"
			begin="0s"
			dur="2s"
			repeatCount="indefinite"
		/>
	</path>
	<path fill="#C7C8CA" d="M14.1,2c0,1.1,0.9,2,2,2c1.1,0,2-0.9,2-2s-0.9-2-2-2C15,0,14.1,0.9,14.1,2" opacity="0">
		<animate
			attributeName="opacity"
			values="0; 0; 0; 1;"
			begin="0s"
			dur="2s"
			repeatCount="indefinite"
		/>
	</path>
</svg>
